<?xml version="1.0" standalone="no"?>
<!DOCTYPE svg PUBLIC "-//W3C//DTD SVG 20010904//EN"
 "http://www.w3.org/TR/2001/REC-SVG-20010904/DTD/svg10.dtd">
<svg version="1.0" xmlns="http://www.w3.org/2000/svg"
 width="30.000000pt" height="22.000000pt" viewBox="0 0 30.000000 22.000000"
 preserveAspectRatio="xMidYMid meet">
<metadata>
Created by potrace 1.10, written by Peter Selinger 2001-2011
</metadata>
<g transform="translate(0.000000,22.000000) scale(0.100000,-0.100000)"
fill="#000000" stroke="none">
<path d="M20 200 c-11 -11 -20 -25 -20 -31 0 -6 7 -4 15 5 9 8 23 22 31 31 9
8 11 15 5 15 -6 0 -20 -9 -31 -20z"/>
<path d="M254 204 c6 -15 5 -17 -5 -6 -19 18 -43 15 -64 -8 -10 -11 -22 -17
-26 -14 -5 3 -7 -1 -5 -8 18 -57 17 -68 -9 -68 -29 0 -33 15 -7 29 16 9 16 10
0 16 -10 4 -18 13 -18 21 0 8 -5 14 -11 14 -7 0 -18 8 -25 18 -13 16 -13 16
-14 0 0 -10 -6 -18 -13 -18 -17 0 -43 -43 -28 -48 6 -2 11 -9 11 -15 0 -15 40
-41 48 -31 4 4 1 9 -5 11 -7 3 -13 11 -13 19 0 8 -7 14 -15 14 -8 0 -15 5 -15
10 0 6 7 10 15 10 8 0 15 7 15 15 0 8 5 15 10 15 6 0 10 -7 10 -15 0 -8 7 -15
15 -15 8 0 15 -4 15 -10 0 -5 -7 -10 -15 -10 -20 0 -19 -20 1 -34 14 -11 11
-16 -20 -39 -35 -27 -36 -27 -63 -10 l-28 18 16 -25 c23 -36 50 -36 84 0 37
39 72 39 110 0 34 -35 58 -38 79 -8 21 29 10 42 -16 18 -20 -18 -22 -18 -43
-2 -20 14 -21 18 -7 21 10 2 30 12 45 24 23 15 28 26 25 48 -3 17 0 26 6 22 5
-4 7 1 3 11 -4 10 -7 19 -7 21 0 3 -10 9 -22 16 -19 10 -20 9 -14 -7z m-4 -39
c26 -32 -13 -81 -47 -59 -23 14 -28 41 -13 59 16 19 44 19 60 0z"/>
<path d="M204 149 c-10 -17 13 -36 27 -22 12 12 4 33 -11 33 -5 0 -12 -5 -16
-11z"/>
</g>
</svg>
