<?xml version="1.0" standalone="no"?>
<!DOCTYPE svg PUBLIC "-//W3C//DTD SVG 20010904//EN"
 "http://www.w3.org/TR/2001/REC-SVG-20010904/DTD/svg10.dtd">
<svg version="1.0" xmlns="http://www.w3.org/2000/svg"
 width="8.000000pt" height="8.000000pt" viewBox="0 0 8.000000 8.000000"
 preserveAspectRatio="xMidYMid meet">
<metadata>
Created by potrace 1.10, written by Peter Selinger 2001-2011
</metadata>
<g transform="translate(0.000000,8.000000) scale(0.100000,-0.100000)"
fill="#80CD09" stroke="none">
<path d="M16 64 c-9 -8 -16 -19 -16 -24 0 -11 29 -40 40 -40 11 0 40 29 40 40
0 11 -29 40 -40 40 -5 0 -16 -7 -24 -16z m39 -14 c4 -6 4 -18 1 -27 -5 -12 -9
-13 -21 -3 -8 7 -15 19 -15 26 0 16 26 19 35 4z"/>
</g>
</svg>
